<svg width="17" height="18" viewBox="0 0 17 18" fill="none" xmlns="http://www.w3.org/2000/svg">
<path fill-rule="evenodd" clip-rule="evenodd" d="M15.7193 0.961731C15.9097 1.11185 16.0208 1.34095 16.0208 1.58342V4.78342C16.0211 4.79466 16.0211 4.80587 16.0208 4.81705V13.6168C16.0208 14.841 15.0284 15.8334 13.8041 15.8334H12.2604C11.058 15.8334 10.0833 14.8587 10.0833 13.6563C10.0833 12.454 11.058 11.4793 12.2604 11.4793H14.4375V5.80056L6.12498 7.76862V15.2001C6.12498 16.4243 5.13253 17.4168 3.90831 17.4168H2.7604C1.55803 17.4168 0.583313 16.442 0.583313 15.2397C0.583313 14.0373 1.55803 13.0626 2.7604 13.0626H4.54165V7.15863C4.54141 7.1474 4.54141 7.13621 4.54165 7.12504V3.95842C4.54165 3.59237 4.79261 3.27404 5.14856 3.18862L15.0444 0.813615C15.2802 0.757029 15.5289 0.811611 15.7193 0.961731ZM6.12498 6.14152L14.4375 4.17345V2.58757L6.12498 4.58257V6.14152ZM4.54165 14.6459H2.7604C2.43248 14.6459 2.16665 14.9118 2.16665 15.2397C2.16665 15.5676 2.43248 15.8334 2.7604 15.8334H3.90831C4.25808 15.8334 4.54165 15.5499 4.54165 15.2001V14.6459ZM14.4375 13.0626H12.2604C11.9325 13.0626 11.6666 13.3284 11.6666 13.6563C11.6666 13.9843 11.9325 14.2501 12.2604 14.2501H13.8041C14.1539 14.2501 14.4375 13.9665 14.4375 13.6168V13.0626Z" fill="#E94057"/>
</svg>
