<svg width="19" height="17" viewBox="0 0 19 17" fill="none" xmlns="http://www.w3.org/2000/svg">
<path fill-rule="evenodd" clip-rule="evenodd" d="M9.50002 1.77083C7.31389 1.77083 5.54169 3.54304 5.54169 5.72917C5.54169 5.74789 5.54182 5.76657 5.54208 5.78523C5.80051 5.74828 6.0647 5.72917 6.33335 5.72917C7.51082 5.72917 8.60252 6.09639 9.50016 6.72256C10.3978 6.09651 11.4893 5.72936 12.6667 5.72936C12.9353 5.72936 13.1995 5.74848 13.458 5.78543C13.4582 5.76671 13.4584 5.74795 13.4584 5.72917C13.4584 3.54304 11.6861 1.77083 9.50002 1.77083ZM15.0174 6.2512C15.0335 6.07935 15.0417 5.90522 15.0417 5.72917C15.0417 2.66859 12.5606 0.1875 9.50002 0.1875C6.43944 0.1875 3.95835 2.66859 3.95835 5.72917C3.95835 5.90515 3.96656 6.07922 3.9826 6.25101C2.09729 7.13542 0.791687 9.05066 0.791687 11.2708C0.791687 14.3314 3.27278 16.8125 6.33335 16.8125C7.5107 16.8125 8.60229 16.4454 9.49988 15.8193C10.3975 16.4455 11.4892 16.8127 12.6667 16.8127C15.7273 16.8127 18.2084 14.3316 18.2084 11.271C18.2084 9.05085 16.9027 7.1356 15.0174 6.2512ZM13.1177 7.33811C12.9697 7.32132 12.8192 7.3127 12.6667 7.3127C11.9457 7.3127 11.2697 7.50548 10.6874 7.84231C11.0035 8.24313 11.2654 8.68864 11.462 9.1678C12.1906 8.75123 12.774 8.10981 13.1177 7.33811ZM11.8508 10.749C13.1039 10.1611 14.1009 9.11788 14.6286 7.83236C15.8213 8.51429 16.625 9.7988 16.625 11.271C16.625 13.4572 14.8528 15.2294 12.6667 15.2294C11.9456 15.2294 11.2695 15.0365 10.6872 14.6996C11.4311 13.7563 11.875 12.5654 11.875 11.2708C11.875 11.0948 11.8668 10.9208 11.8508 10.749ZM9.95111 9.66208C9.82942 9.38884 9.67768 9.13193 9.5001 8.89555C9.32249 9.13193 9.17073 9.38884 9.04902 9.66209C9.19703 9.67888 9.34752 9.6875 9.50002 9.6875C9.65255 9.6875 9.80307 9.67887 9.95111 9.66208ZM8.70875 11.2148C8.96718 11.2517 9.23137 11.2708 9.50002 11.2708C9.76867 11.2708 10.0329 11.2517 10.2913 11.2148C10.2916 11.2334 10.2917 11.2521 10.2917 11.2708C10.2917 12.1622 9.99709 12.9847 9.49995 13.6463C9.0029 12.9847 8.70835 12.1623 8.70835 11.271C8.70835 11.2522 8.70849 11.2335 8.70875 11.2148ZM7.53806 9.16784C7.73479 8.68863 7.99673 8.24308 8.31284 7.84224C7.73055 7.50533 7.05447 7.3125 6.33335 7.3125C6.18082 7.3125 6.03031 7.32113 5.88227 7.33792C6.226 8.10973 6.80946 8.75123 7.53806 9.16784ZM4.37133 7.8322C4.89905 9.1178 5.8961 10.1611 7.14929 10.749C7.13323 10.9209 7.12502 11.095 7.12502 11.271C7.12502 12.5655 7.56885 13.7563 8.31262 14.6996C7.73038 15.0364 7.05438 15.2292 6.33335 15.2292C4.14723 15.2292 2.37502 13.457 2.37502 11.2708C2.37502 9.79863 3.17873 8.51414 4.37133 7.8322Z" fill="#E94057"/>
</svg>
